<?xml version="1.0" encoding="UTF-8"?>
<!--
Font Awesome Free 5.15.1 by @fontawesome - https://fontawesome.com
License - https://fontawesome.com/license/free (Icons: CC BY 4.0, Fonts: SIL OFL 1.1, Code: MIT License)
-->
<svg xmlns="http://www.w3.org/2000/svg" style="display: none">


    <symbol id="search" viewBox="0 0 32 32"
        style="display:block;fill:none;height:12px;width:12px;stroke:currentColor;stroke-width:5.333333333333333;overflow:visible"
        aria-hidden="true" role="presentation" focusable="false">
        <g fill="none">
            <path
                d="m13 24c6.0751322 0 11-4.9248678 11-11 0-6.07513225-4.9248678-11-11-11-6.07513225 0-11 4.92486775-11 11 0 6.0751322 4.92486775 11 11 11zm8-3 9 9">
            </path>
        </g>
    </symbol>

    <symbol id="world" viewBox="0 0 16 16" xmlns="http://www.w3.org/2000/svg" aria-hidden="true" role="presentation"
        focusable="false">
        <path
            d="m8.002.25a7.77 7.77 0 0 1 7.748 7.776 7.75 7.75 0 0 1 -7.521 7.72l-.246.004a7.75 7.75 0 0 1 -7.73-7.513l-.003-.245a7.75 7.75 0 0 1 7.752-7.742zm1.949 8.5h-3.903c.155 2.897 1.176 5.343 1.886 5.493l.068.007c.68-.002 1.72-2.365 1.932-5.23zm4.255 0h-2.752c-.091 1.96-.53 3.783-1.188 5.076a6.257 6.257 0 0 0 3.905-4.829zm-9.661 0h-2.75a6.257 6.257 0 0 0 3.934 5.075c-.615-1.208-1.036-2.875-1.162-4.686l-.022-.39zm1.188-6.576-.115.046a6.257 6.257 0 0 0 -3.823 5.03h2.75c.085-1.83.471-3.54 1.059-4.81zm2.262-.424c-.702.002-1.784 2.512-1.947 5.5h3.904c-.156-2.903-1.178-5.343-1.892-5.494l-.065-.007zm2.28.432.023.05c.643 1.288 1.069 3.084 1.157 5.018h2.748a6.275 6.275 0 0 0 -3.929-5.068z">
        </path>
    </symbol>
    <symbol id="hamburger" viewBox="0 0 32 32" xmlns="http://www.w3.org/2000/svg" aria-hidden="true" role="presentation"
        focusable="false"
        style="display: block; fill: none; height: 16px; width: 16px; stroke: currentcolor; stroke-width: 3; overflow: visible;">
        <g fill="none" fill-rule="nonzero">
            <path d="m2 16h28"></path>
            <path d="m2 24h28"></path>
            <path d="m2 8h28"></path>
        </g>
    </symbol>
    <symbol id="avatar" viewBox="0 0 32 32" xmlns="http://www.w3.org/2000/svg" aria-hidden="true" role="presentation"
        focusable="false">
        <path
            d="m16 .7c-8.437 0-15.3 6.863-15.3 15.3s6.863 15.3 15.3 15.3 15.3-6.863 15.3-15.3-6.863-15.3-15.3-15.3zm0 28c-4.021 0-7.605-1.884-9.933-4.81a12.425 12.425 0 0 1 6.451-4.4 6.507 6.507 0 0 1 -3.018-5.49c0-3.584 2.916-6.5 6.5-6.5s6.5 2.916 6.5 6.5a6.513 6.513 0 0 1 -3.019 5.491 12.42 12.42 0 0 1 6.452 4.4c-2.328 2.925-5.912 4.809-9.933 4.809z">
        </path>
    </symbol>
    <symbol id="filter" viewBox="0 0 16 16" xmlns="http://www.w3.org/2000/svg" aria-hidden="true" role="presentation"
        focusable="false">
        <path
            d="M5 8c1.306 0 2.418.835 2.83 2H14v2H7.829A3.001 3.001 0 1 1 5 8zm0 2a1 1 0 1 0 0 2 1 1 0 0 0 0-2zm6-8a3 3 0 1 1-2.829 4H2V4h6.17A3.001 3.001 0 0 1 11 2zm0 2a1 1 0 1 0 0 2 1 1 0 0 0 0-2z">
        </path>
    </symbol>
    <symbol id="left-chevron" viewBox="0 0 32 32" xmlns="http://www.w3.org/2000/svg" aria-hidden="true"
        role="presentation" focusable="false"
        style="display: block; fill: none; height: 12px; width: 12px; stroke: currentcolor; stroke-width: 5.33333; overflow: visible;">
        <g fill="none">
            <path
                d="m20 28-11.29289322-11.2928932c-.39052429-.3905243-.39052429-1.0236893 0-1.4142136l11.29289322-11.2928932">
            </path>
        </g>
    </symbol>
    <symbol id="right-chevron" viewBox="0 0 32 32" xmlns="http://www.w3.org/2000/svg" aria-hidden="true"
        role="presentation" focusable="false"
        style="display: block; fill: none; height: 12px; width: 12px; stroke: currentcolor; stroke-width: 5.33333; overflow: visible;">
        <g fill="none">
            <path d="m12 4 11.2928932 11.2928932c.3905243.3905243.3905243 1.0236893 0 1.4142136l-11.2928932 11.2928932">
            </path>
        </g>
    </symbol>
    <symbol id="search-2" viewBox="0 0 32 32" xmlns="http://www.w3.org/2000/svg" aria-hidden="true" role="presentation"
        focusable="false"
        style="display: block; fill: none; height: 24px; width: 24px; stroke: currentcolor; stroke-width: 3; overflow: visible;">
        <g fill="none">
            <path
                d="m13 24c6.0751322 0 11-4.9248678 11-11 0-6.07513225-4.9248678-11-11-11-6.07513225 0-11 4.92486775-11 11 0 6.0751322 4.92486775 11 11 11zm8-3 9 9">
            </path>
        </g>
    </symbol>
    <symbol id="heart" viewBox="0 0 32 32" xmlns="http://www.w3.org/2000/svg" aria-hidden="true" role="presentation"
        focusable="false"
        style="display: block; fill: none; height: 24px; width: 24px; stroke: currentcolor; stroke-width: 2.66667; overflow: visible;">
        <path
            d="m16 28c7-4.733 14-10 14-17 0-1.792-.683-3.583-2.05-4.95-1.367-1.366-3.158-2.05-4.95-2.05-1.791 0-3.583.684-4.949 2.05l-2.051 2.051-2.05-2.051c-1.367-1.366-3.158-2.05-4.95-2.05-1.791 0-3.583.684-4.949 2.05-1.367 1.367-2.051 3.158-2.051 4.95 0 7 7 12.267 14 17z">
        </path>
    </symbol>
    <symbol id="profile" viewBox="0 0 32 32" xmlns="http://www.w3.org/2000/svg" aria-hidden="true" role="presentation"
        focusable="false" style="display: block; height: 24px; width: 24px; fill: currentcolor;">
        <path
            d="m16 1c8.2842712 0 15 6.71572875 15 15 0 8.2842712-6.7157288 15-15 15-8.28427125 0-15-6.7157288-15-15 0-8.28427125 6.71572875-15 15-15zm0 8c-2.7614237 0-5 2.2385763-5 5 0 2.0143973 1.2022141 3.7998876 2.9996346 4.5835001l.0003231 2.0984999-.1499943.0278452c-2.8326474.5613112-5.31897338 2.2230336-6.93575953 4.5872979 2.34343054 2.291067 5.54974273 3.7028569 9.08579613 3.7028569 3.5355506 0 6.7414538-1.4113884 9.0850203-3.701476-1.6141801-2.3628535-4.0978119-4.0247647-6.929184-4.5867938l-.1558786-.0287302.001228-2.0991413c1.7288399-.7547474 2.9066959-2.4357565 2.9936498-4.355479l.0051645-.2283797c0-2.7614237-2.2385763-5-5-5zm0-6c-7.17970175 0-13 5.82029825-13 13 0 2.9045768.95257276 5.5866683 2.56235849 7.7509147 1.42074739-1.9134907 3.33951478-3.4002416 5.53860831-4.2955956l.3480332-.1363191-.0229565-.0189706c-1.43704227-1.2411241-2.34462949-3.045583-2.42083359-5.0285539l-.00520991-.2714755c0-3.8659932 3.1340068-7 7-7s7 3.1340068 7 7c0 1.9941317-.8415062 3.8279876-2.224566 5.1193683l-.225434.2006317.0447787.0163138c2.3268368.8792152 4.3570558 2.4138611 5.8430586 4.4127726 1.6098837-2.1632453 2.5621627-4.8449575 2.5621627-7.7490864 0-7.17970175-5.8202983-13-13-13z">
        </path>
    </symbol>
    <symbol id="like" xmlns="http://www.w3.org/2000/svg" viewBox="0 0 32 32" aria-hidden="true" role="presentation"
        focusable="false"
        style="display: block; fill: currentColor; height: 24px; width: 24px; stroke: var(--f-mkcy-f); stroke-width: 2; overflow: visible;">
        <path
            d="M16 28c7-4.73 14-10 14-17a6.98 6.98 0 0 0-7-7c-1.8 0-3.58.68-4.95 2.05L16 8.1l-2.05-2.05a6.98 6.98 0 0 0-9.9 0A6.98 6.98 0 0 0 2 11c0 7 7 12.27 14 17z">
        </path>
    </symbol>
    <symbol id="star" xmlns="http://www.w3.org/2000/svg" viewBox="0 0 32 32" aria-hidden="true" role="presentation" focusable="false"
        style="display: block; height: 12px; width: 12px; fill: currentcolor;">
        <path fill-rule="evenodd"
            d="m15.1 1.58-4.13 8.88-9.86 1.27a1 1 0 0 0-.54 1.74l7.3 6.57-1.97 9.85a1 1 0 0 0 1.48 1.06l8.62-5 8.63 5a1 1 0 0 0 1.48-1.06l-1.97-9.85 7.3-6.57a1 1 0 0 0-.55-1.73l-9.86-1.28-4.12-8.88a1 1 0 0 0-1.82 0z">
        </path>
    </symbol>
</svg>